<svg id="Layer_1" data-name="Layer 1" xmlns="http://www.w3.org/2000/svg" viewBox="0 0 1920 1920"><defs><style>.cls-1,.cls-2,.cls-3,.cls-4,.cls-5,.cls-6{fill:none;stroke:#ccc;stroke-miterlimit:10;}.cls-2{opacity:0.85;}.cls-3{opacity:0.71;}.cls-4{opacity:0.6;}.cls-5{opacity:0.55;}.cls-6{opacity:0.68;}.cls-7{fill:#ccc;}</style></defs><title>Artboard 1</title><polyline class="cls-1" points="2.33 298.65 57.26 324.92 238.78 291.49 288.94 269.99 637.65 62.2 804.84 174.45 883.65 31.15 1067.56 105.19 857.38 384.63 599.43 322.53 680.64 659.3 460.9 547.04 353.43 506.44 212.51 458.67 191.01 394.19 374.92 480.17"/><polyline class="cls-1" points="636.45 61 600.63 323.73 806.03 175.65 1068.76 106.38 1185.79 244.91 1145.18 433.6 1446.12 357.17 1532.11 261.63 1551.21 462.26 1680.19 507.64 1799.61 457.48 1914.25 457.48 1779.31 609.14 1645.56 864.7 1786.47 800.22 1772.14 917.25 1650.33 1005.62"/><polyline class="cls-2" points="1325.51 191.17 1143.99 432.4 1265.8 673.63 1172.65 1003.23 1315.96 802.6 1077.12 883.81 1077.12 986.51 974.41 1012.78 1012.63 1134.59 1146.38 1344.77 819.17 1459.42 604.21 1349.55 792.89 1175.2 921.87 1165.64 1012.63 1134.59 1077.12 986.51 1172.65 1003.23 1077.12 883.81 974.41 1012.78 871.71 795.44 854.99 680.79 838.27 699.9 792.89 826.49 470.46 847.98 680.64 659.3 878.88 539.88 857.38 384.63 806.03 175.65"/><line class="cls-1" x1="1003.07" y1="580.48" x2="1179.82" y2="628.25"/><polyline class="cls-3" points="73.98 1058.16 171.91 788.27 288.94 580.48 210.12 456.29 57.26 324.92 191.01 394.19 238.78 291.49 374.92 480.17 458.52 547.04 599.43 322.53 727.21 580.88 878.88 539.88 921.87 606.75 862.16 642.58 854.99 680.79 921.87 606.75 1003.07 580.48 1041.29 702.29 1179.82 628.25 1184.59 702.29 1265.8 673.63 1315.96 802.6 1504.64 508.83 1550.02 461.06 1444.93 355.97 1423.43 310.59 1530.91 260.44 1466.42 105.19 1325.51 191.17 1067.56 105.19"/><line class="cls-1" x1="838.27" y1="699.9" x2="680.64" y2="659.3"/><polyline class="cls-4" points="1220.82 834.05 1184.59 702.29 1077.12 883.81 871.71 795.44 1041.29 702.29 921.87 606.75 871.71 795.44 792.89 826.49 747.51 979.35 468.07 845.6 382.09 838.43 171.91 788.27 21.44 757.22 73.98 1058.16 1.14 1013.98 75.18 1059.36 1.14 1073.69 72.79 1078.46 20.24 1288.64 113.39 1400.9 290.13 1238.49 175.49 1259.98 271.03 1138.18 598.24 1288.64 760.65 1097.57 748.71 980.54 337.9 947.1 469.26 846.79 459.71 545.85 383.28 839.63 290.13 581.68 1.14 708.26 211.32 457.48 376.12 478.98 600.63 323.73 287.75 268.8"/><polyline class="cls-1" points="680.64 659.3 862.16 642.58 878.88 539.88"/><polyline class="cls-1" points="71.59 1079.66 73.98 1058.16 336.71 945.91 171.91 788.27 336.71 948.3 759.46 1098.77 267.44 1139.37 71.59 1079.66 171.91 1261.18 19.05 1289.84 -12 1292.23 -12 1404.48 112.2 1402.1 2.33 1547.79 93.09 1528.68 169.52 1447.47 171.91 1586"/><polyline class="cls-1" points="1201.31 1476.14 1258.63 1703.04 1318.34 1621.83 1483.14 1650.49 1478.37 1406.87 1619.28 1600.33 1633.61 1433.14 1671.83 1609.89 1920.22 1550.18 1915.45 1719.75 1755.42 1772.3 1702.88 1853.5 1710.04 1698.26 1619.28 1600.33 1483.14 1650.49 1358.95 1688.7 1258.63 1703.04 1148.77 1724.53 1201.31 1476.14 1318.34 1621.83 1478.37 1406.87 1633.61 1433.14 1846.18 1323.28 1910.67 1351.94"/><polyline class="cls-1" points="1483.14 1650.49 1530.91 1815.29 1619.28 1600.33 1671.83 1609.89 1710.04 1698.26 1920.22 1550.18 1846.18 1323.28 1925 1285.06"/><polyline class="cls-5" points="1318.34 1621.83 1358.95 1688.7 1530.91 1815.29 1710.04 1698.26 1755.42 1772.3"/><polyline class="cls-1" points="380.89 839.63 337.9 947.1 268.64 1138.18 290.13 1238.49 173.1 1259.98 113.39 1400.9 94.28 1527.49 173.1 1587.2 170.71 1446.28 230.42 1295.81"/><polyline class="cls-1" points="1650.33 1005.62 1712.43 1122.65 1891.56 1070.11 1772.14 917.25 1915.45 778.72 1915.45 759.61 1786.47 800.22 1504.64 508.83 1779.31 609.14 1681.38 508.83 1679.17 392.04 1798.41 458.67 1798.41 322.53"/><polyline class="cls-1" points="1143.99 432.4 1504.64 508.83 1645.56 864.7 1650.33 1005.62 1891.56 1070.11 1917.84 960.24"/><polyline class="cls-1" points="57.26 324.92 2.33 463.45 210.12 456.29"/><polyline class="cls-5" points="1798.41 322.53 1913.06 367.91 1798.41 458.67 1779.31 609.14 1786.47 800.22 1910.67 711.85 1779.31 609.14 1798.41 458.67 1913.06 367.91 1913.06 298.65 1822.3 248.49 1798.41 322.53 1550.02 461.06 1143.99 432.4 1423.43 310.59 1530.91 260.44 1325.51 191.17 1184.59 243.72 857.38 384.63 726.02 580.48 680.64 659.3 792.89 826.49 974.41 1012.78 921.87 1165.64 921.87 1242.07 819.17 1459.42 792.89 1175.2 597.04 1287.45 604.21 1349.55"/><line class="cls-1" x1="1041.29" y1="702.29" x2="1077.11" y2="883.81"/><polyline class="cls-1" points="1146.38 1344.77 921.87 1242.07 792.89 1175.2 759.46 1098.77 921.87 1165.64 747.51 979.35 974.41 1012.78"/><line class="cls-6" x1="1012.63" y1="1134.59" x2="921.87" y2="1242.07"/><polyline class="cls-1" points="857.38 384.63 1143.99 432.4 878.88 539.88 1003.07 580.48 1143.99 432.4 1179.82 628.25 1265.8 673.63 1504.64 508.83 1681.38 508.83"/><path class="cls-7" d="M600.63,331.12c6.43,0,6.44-10,0-10s-6.45,10,0,10Z"/><path class="cls-7" d="M806,180.65c6.43,0,6.45-10,0-10s-6.44,10,0,10Z"/><path class="cls-7" d="M636.45,70.78c6.44,0,6.45-10,0-10s-6.44,10,0,10Z"/><path class="cls-7" d="M884.85,39.73c6.43,0,6.44-10,0-10s-6.45,10,0,10Z"/><path class="cls-7" d="M1064,111.38c6.43,0,6.44-10,0-10s-6.45,10,0,10Z"/><path class="cls-7" d="M1185.79,248.32c6.43,0,6.44-10,0-10s-6.45,10,0,10Z"/><path class="cls-7" d="M1324.32,197.37c6.43,0,6.44-10,0-10s-6.45,10,0,10Z"/><path class="cls-7" d="M1467.62,111.38c6.43,0,6.44-10,0-10s-6.45,10,0,10Z"/><path class="cls-7" d="M1529.72,265.83c6.43,0,6.44-10,0-10s-6.45,10,0,10Z"/><path class="cls-7" d="M1424.63,315.19c6.43,0,6.44-10,0-10s-6.45,10,0,10Z"/><path class="cls-7" d="M1445.33,361.37c6.43,0,6.44-10,0-10s-6.45,10,0,10Z"/><path class="cls-7" d="M1550.42,464.87c6.43,0,6.44-10,0-10s-6.45,10,0,10Z"/><path class="cls-7" d="M1677.8,396.4c6.43,0,6.44-10,0-10s-6.45,10,0,10Z"/><path class="cls-7" d="M1798.81,327.93c6.44,0,6.45-10,0-10s-6.44,10,0,10Z"/><path class="cls-7" d="M1822.7,253.1c6.43,0,6.44-10,0-10s-6.45,10,0,10Z"/><path class="cls-7" d="M1911.86,372.52c6.44,0,6.45-10,0-10s-6.44,10,0,10Z"/><path class="cls-7" d="M1913.46,463.28c6.43,0,6.44-10,0-10s-6.45,10,0,10Z"/><path class="cls-7" d="M1797.22,463.28c6.43,0,6.45-10,0-10s-6.45,10,0,10Z"/><path class="cls-7" d="M1779.71,614.54c6.43,0,6.44-10,0-10s-6.45,10,0,10Z"/><path class="cls-7" d="M1681,512.64c6.44,0,6.45-10,0-10s-6.44,10,0,10Z"/><path class="cls-7" d="M1505.83,514.23c6.44,0,6.45-10,0-10s-6.44,10,0,10Z"/><path class="cls-7" d="M1716,734c6.44,0,6.45-10,0-10s-6.44,10,0,10Z"/><path class="cls-7" d="M1786.07,802.43c6.44,0,6.45-10,0-10s-6.44,10,0,10Z"/><path class="cls-7" d="M1910.27,716.45c6.44,0,6.45-10,0-10s-6.44,10,0,10Z"/><path class="cls-7" d="M1773.34,921.85c6.43,0,6.44-10,0-10s-6.45,10,0,10Z"/><path class="cls-7" d="M1647.55,867.71c6.43,0,6.44-10,0-10s-6.45,10,0,10Z"/><path class="cls-7" d="M1652.32,1009.42c6.44,0,6.45-10,0-10s-6.44,10,0,10Z"/><path class="cls-7" d="M1889.57,1074.71c6.44,0,6.45-10,0-10s-6.44,10,0,10Z"/><path class="cls-7" d="M1714.42,1125.66c6.44,0,6.45-10,0-10s-6.44,10,0,10Z"/><path class="cls-7" d="M1314.76,805.61c6.44,0,6.45-10,0-10s-6.44,10,0,10Z"/><path class="cls-7" d="M1265.4,676.64c6.44,0,6.45-10,0-10s-6.44,10,0,10Z"/><path class="cls-7" d="M1146,437.8c6.43,0,6.45-10,0-10s-6.44,10,0,10Z"/><path class="cls-7" d="M1181,633.65c6.44,0,6.45-10,0-10s-6.44,10,0,10Z"/><path class="cls-7" d="M1185.79,705.3c6.43,0,6.44-10,0-10s-6.45,10,0,10Z"/><path class="cls-7" d="M1220.82,837.46c6.43,0,6.44-10,0-10s-6.45,10,0,10Z"/><path class="cls-7" d="M1077.51,886.82c6.44,0,6.45-10,0-10s-6.44,10,0,10Z"/><path class="cls-7" d="M1171.46,1006.24c6.43,0,6.44-10,0-10s-6.45,10,0,10Z"/><path class="cls-7" d="M1040.89,706.89c6.43,0,6.45-10,0-10s-6.44,10,0,10Z"/><path class="cls-7" d="M1004.27,585.88c6.43,0,6.44-10,0-10s-6.45,10,0,10Z"/><path class="cls-7" d="M880.07,544.48c6.44,0,6.45-10,0-10s-6.44,10,0,10Z"/><path class="cls-7" d="M921.47,613c6.43,0,6.45-10,0-10s-6.45,10,0,10Z"/><path class="cls-7" d="M873.7,799.24c6.44,0,6.45-10,0-10s-6.44,10,0,10Z"/><path class="cls-7" d="M857.78,686.19c6.43,0,6.44-10,0-10s-6.45,10,0,10Z"/><path class="cls-7" d="M862.56,646.39c6.43,0,6.44-10,0-10s-6.45,10,0,10Z"/><path class="cls-7" d="M837.08,705.3c6.43,0,6.44-10,0-10s-6.45,10,0,10Z"/><path class="cls-7" d="M681,663.9c6.43,0,6.44-10,0-10s-6.45,10,0,10Z"/><path class="cls-7" d="M727.21,584.29c6.44,0,6.45-10,0-10s-6.44,10,0,10Z"/><path class="cls-7" d="M792.5,831.09c6.43,0,6.44-10,0-10s-6.45,10,0,10Z"/><path class="cls-7" d="M974,1017.39c6.43,0,6.44-10,0-10s-6.45,10,0,10Z"/><path class="cls-7" d="M1012.23,1140c6.43,0,6.44-10,0-10s-6.45,10,0,10Z"/><path class="cls-7" d="M1142.8,1348.58c6.43,0,6.44-10,0-10s-6.45,10,0,10Z"/><path class="cls-7" d="M921.47,1248.27c6.43,0,6.45-10,0-10s-6.45,10,0,10Z"/><path class="cls-7" d="M921.47,1168.65c6.43,0,6.45-10,0-10s-6.45,10,0,10Z"/><path class="cls-7" d="M819.56,1461.63c6.44,0,6.45-10,0-10s-6.44,10,0,10Z"/><path class="cls-7" d="M606.2,1355c6.43,0,6.45-10,0-10s-6.45,10,0,10Z"/><path class="cls-7" d="M790.9,1181.39c6.44,0,6.45-10,0-10s-6.44,10,0,10Z"/><path class="cls-7" d="M596.65,1291.26c6.43,0,6.44-10,0-10s-6.45,10,0,10Z"/><path class="cls-7" d="M270.23,1144.77c6.43,0,6.45-10,0-10s-6.44,10,0,10Z"/><path class="cls-7" d="M337.11,953.7c6.43,0,6.44-10,0-10s-6.45,10,0,10Z"/><path class="cls-7" d="M381.69,843.83c6.43,0,6.44-10,0-10s-6.45,10,0,10Z"/><path class="cls-7" d="M470.86,851.79c6.43,0,6.44-10,0-10s-6.45,10,0,10Z"/><path class="cls-7" d="M749.5,985.54c6.44,0,6.45-10,0-10s-6.44,10,0,10Z"/><path class="cls-7" d="M458.12,550.85c6.43,0,6.44-10,0-10s-6.45,10,0,10Z"/><path class="cls-7" d="M375.32,482.38c6.43,0,6.45-10,0-10s-6.44,10,0,10Z"/><path class="cls-7" d="M240,296.09c6.43,0,6.44-10,0-10s-6.45,10,0,10Z"/><path class="cls-7" d="M192.21,399.58c6.43,0,6.44-10,0-10s-6.45,10,0,10Z"/><path class="cls-7" d="M212.91,461.68c6.43,0,6.44-10,0-10s-6.45,10,0,10Z"/><path class="cls-7" d="M292.52,273.79c6.44,0,6.45-10,0-10s-6.44,10,0,10Z"/><path class="cls-7" d="M58.46,331.12c6.43,0,6.44-10,0-10s-6.45,10,0,10Z"/><path class="cls-7" d="M2.73,466.46c6.43,0,6.44-10,0-10s-6.45,10,0,10Z"/><path class="cls-7" d="M1.14,713.26c6.43,0,6.44-10,0-10s-6.45,10,0,10Z"/><path class="cls-7" d="M21.84,762.62c6.43,0,6.44-10,0-10s-6.45,10,0,10Z"/><path class="cls-7" d="M171.51,794.47c6.43,0,6.44-10,0-10s-6.45,10,0,10Z"/><path class="cls-7" d="M286.15,589.06c6.44,0,6.45-10,0-10s-6.44,10,0,10Z"/><path class="cls-7" d="M74.38,1062c6.44,0,6.45-10,0-10s-6.44,10,0,10Z"/><path class="cls-7" d="M71.2,1087.45c6.43,0,6.44-10,0-10s-6.45,10,0,10Z"/><path class="cls-7" d="M1.14,1079.48c6.43,0,6.44-10,0-10s-6.45,10,0,10Z"/><path class="cls-7" d="M23.43,1294.44c6.43,0,6.44-10,0-10s-6.45,10,0,10Z"/><path class="cls-7" d="M171.51,1267.37c6.43,0,6.44-10,0-10s-6.45,10,0,10Z"/><path class="cls-7" d="M287.75,1243.49c6.43,0,6.44-10,0-10s-6.45,10,0,10Z"/><path class="cls-7" d="M227.24,1300.81c6.43,0,6.44-10,0-10s-6.45,10,0,10Z"/><path class="cls-7" d="M168.32,1455.26c6.44,0,6.45-10,0-10s-6.44,10,0,10Z"/><path class="cls-7" d="M169.92,1590.6c6.43,0,6.44-10,0-10s-6.45,10,0,10Z"/><path class="cls-7" d="M95.08,1533.28c6.43,0,6.45-10,0-10s-6.44,10,0,10Z"/><path class="cls-7" d="M112.6,1407.49c6.43,0,6.44-10,0-10s-6.45,10,0,10Z"/><path class="cls-7" d="M2.73,1550.8c6.43,0,6.44-10,0-10s-6.45,10,0,10Z"/><path class="cls-7" d="M760.65,1103.37c6.43,0,6.45-10,0-10s-6.44,10,0,10Z"/><path class="cls-7" d="M1077.51,991.91c6.44,0,6.45-10,0-10s-6.44,10,0,10Z"/><path class="cls-7" d="M857.78,388.44c6.43,0,6.44-10,0-10s-6.45,10,0,10Z"/><path class="cls-7" d="M1201.71,1482.33c6.43,0,6.45-10,0-10s-6.45,10,0,10Z"/><path class="cls-7" d="M1149.17,1727.54c6.43,0,6.44-10,0-10s-6.45,10,0,10Z"/><path class="cls-7" d="M1259,1708.43c6.44,0,6.45-10,0-10s-6.44,10,0,10Z"/><path class="cls-7" d="M1316.35,1627.23c6.44,0,6.45-10,0-10s-6.44,10,0,10Z"/><path class="cls-7" d="M1356.16,1692.51c6.44,0,6.45-10,0-10s-6.44,10,0,10Z"/><path class="cls-7" d="M1482,1654.3c6.43,0,6.45-10,0-10s-6.45,10,0,10Z"/><path class="cls-7" d="M1478.77,1412.27c6.43,0,6.44-10,0-10s-6.45,10,0,10Z"/><path class="cls-7" d="M1633.22,1436.15c6.43,0,6.44-10,0-10s-6.45,10,0,10Z"/><path class="cls-7" d="M1848.17,1327.88c6.44,0,6.45-10,0-10s-6.44,10,0,10Z"/><path class="cls-7" d="M1918.23,1555.57c6.44,0,6.45-10,0-10s-6.44,10,0,10Z"/><path class="cls-7" d="M1673,1614.49c6.44,0,6.45-10,0-10s-6.44,10,0,10Z"/><path class="cls-7" d="M1618.89,1604.93c6.43,0,6.44-10,0-10s-6.45,10,0,10Z"/><path class="cls-7" d="M1531.31,1816.71c6.44,0,6.45-10,0-10s-6.44,10,0,10Z"/><path class="cls-7" d="M1709.65,1703.66c6.43,0,6.44-10,0-10s-6.45,10,0,10Z"/><path class="cls-7" d="M1703.28,1858.11c6.43,0,6.44-10,0-10s-6.45,10,0,10Z"/><path class="cls-7" d="M1754.23,1776.9c6.43,0,6.44-10,0-10s-6.45,10,0,10Z"/></svg>